<svg width="191" height="49" viewBox="0 0 191 49" fill="none" xmlns="http://www.w3.org/2000/svg">
<rect width="49.8616" height="48.9208" rx="24.4604" fill="#E5890A"/>
<path d="M8.44531 13.2747C8.44531 13.2747 12.1905 15.3915 14.4338 13.2747C16.6772 11.158 18.5408 10.3513 18.5408 10.3513M18.5408 10.3513V27.9557C18.5408 30.2089 20.6755 32.3256 23.9843 29.3103C33.8465 20.3227 39.7051 31.6393 33.8465 36.0888M18.5408 10.3513C18.5408 10.3513 22.0867 8.2922 28.8984 13.2747C35.7101 18.2573 39.256 13.2747 39.256 13.2747" stroke="white" stroke-width="3.385"/>
<circle cx="30.4128" cy="38.3191" r="1.88157" fill="white"/>
<path d="M76.6802 13.8764V16.8369H70.7912V36H67.1623V16.8369H61.2415V13.8764H76.6802ZM83.9843 21.0069C84.5148 20.1156 85.2151 19.4259 86.0852 18.9378C86.9765 18.4285 88.027 18.1738 89.2366 18.1738V21.93H88.3135C86.8916 21.93 85.8093 22.2908 85.0666 23.0124C84.345 23.7339 83.9843 24.986 83.9843 26.7686V36H80.3554V18.4603H83.9843V21.0069ZM91.3627 27.1506C91.3627 25.3892 91.7235 23.8294 92.445 22.4712C93.1878 21.113 94.1852 20.0625 95.4372 19.3198C96.7105 18.5558 98.1112 18.1738 99.6391 18.1738C101.019 18.1738 102.218 18.4497 103.236 19.0015C104.276 19.532 105.104 20.2005 105.719 21.0069V18.4603H109.38V36H105.719V33.3897C105.104 34.2174 104.265 34.9071 103.204 35.4588C102.143 36.0106 100.934 36.2865 99.5755 36.2865C98.0687 36.2865 96.6893 35.9045 95.4372 35.1405C94.1852 34.3553 93.1878 33.273 92.445 31.8936C91.7235 30.493 91.3627 28.912 91.3627 27.1506ZM105.719 27.2142C105.719 26.0046 105.464 24.9541 104.955 24.0628C104.467 23.1715 103.82 22.4924 103.013 22.0255C102.207 21.5587 101.337 21.3252 100.403 21.3252C99.4694 21.3252 98.5993 21.5587 97.7928 22.0255C96.9864 22.4712 96.3286 23.1397 95.8192 24.031C95.3311 24.9011 95.0871 25.9409 95.0871 27.1506C95.0871 28.3602 95.3311 29.4213 95.8192 30.3338C96.3286 31.2464 96.9864 31.9467 97.7928 32.4348C98.6205 32.9016 99.4906 33.1351 100.403 33.1351C101.337 33.1351 102.207 32.9016 103.013 32.4348C103.82 31.9679 104.467 31.2888 104.955 30.3975C105.464 29.485 105.719 28.4239 105.719 27.2142ZM120.927 32.7531L125.892 18.4603H129.744L123.059 36H118.73L112.077 18.4603H115.961L120.927 32.7531ZM148.563 26.8004C148.563 27.4583 148.52 28.0525 148.435 28.583H135.034C135.14 29.9837 135.66 31.1084 136.594 31.9573C137.527 32.8061 138.673 33.2306 140.032 33.2306C141.984 33.2306 143.363 32.4135 144.17 30.7795H148.085C147.555 32.3923 146.589 33.7187 145.188 34.7585C143.809 35.7772 142.09 36.2865 140.032 36.2865C138.355 36.2865 136.848 35.9151 135.511 35.1724C134.196 34.4084 133.156 33.3473 132.392 31.9891C131.649 30.6097 131.278 29.0181 131.278 27.2142C131.278 25.4104 131.638 23.8294 132.36 22.4712C133.103 21.0918 134.132 20.0307 135.448 19.288C136.785 18.5452 138.313 18.1738 140.032 18.1738C141.687 18.1738 143.162 18.5346 144.456 19.2561C145.751 19.9777 146.759 20.9963 147.48 22.312C148.202 23.6066 148.563 25.1027 148.563 26.8004ZM144.775 25.6544C144.753 24.3175 144.276 23.2458 143.342 22.4394C142.408 21.6329 141.252 21.2297 139.872 21.2297C138.62 21.2297 137.549 21.6329 136.657 22.4394C135.766 23.2246 135.235 24.2963 135.066 25.6544H144.775ZM155.763 12.444V36H152.134V12.444H155.763ZM176.603 26.8004C176.603 27.4583 176.56 28.0525 176.475 28.583H163.074C163.18 29.9837 163.7 31.1084 164.634 31.9573C165.567 32.8061 166.713 33.2306 168.071 33.2306C170.024 33.2306 171.403 32.4135 172.21 30.7795H176.125C175.595 32.3923 174.629 33.7187 173.228 34.7585C171.849 35.7772 170.13 36.2865 168.071 36.2865C166.395 36.2865 164.888 35.9151 163.551 35.1724C162.236 34.4084 161.196 33.3473 160.432 31.9891C159.689 30.6097 159.318 29.0181 159.318 27.2142C159.318 25.4104 159.678 23.8294 160.4 22.4712C161.143 21.0918 162.172 20.0307 163.488 19.288C164.825 18.5452 166.353 18.1738 168.071 18.1738C169.727 18.1738 171.202 18.5346 172.496 19.2561C173.791 19.9777 174.799 20.9963 175.52 22.312C176.242 23.6066 176.603 25.1027 176.603 26.8004ZM172.815 25.6544C172.793 24.3175 172.316 23.2458 171.382 22.4394C170.448 21.6329 169.292 21.2297 167.912 21.2297C166.66 21.2297 165.589 21.6329 164.697 22.4394C163.806 23.2246 163.275 24.2963 163.106 25.6544H172.815ZM183.803 21.0069C184.333 20.1156 185.034 19.4259 185.904 18.9378C186.795 18.4285 187.845 18.1738 189.055 18.1738V21.93H188.132C186.71 21.93 185.628 22.2908 184.885 23.0124C184.163 23.7339 183.803 24.986 183.803 26.7686V36H180.174V18.4603H183.803V21.0069Z" fill="black"/>
</svg>
